<?xml version="1.0" encoding="UTF-8"?>
<svg id="Layer_1" data-name="Layer 1" xmlns="http://www.w3.org/2000/svg" viewBox="0 0 2000 3000">
  <defs>
    <style>
      .cls-1 {
        fill: #e03c31;
        stroke-width: 0px;
      }
    </style>
  </defs>
  <path class="cls-1" d="M2999-300c-994.11255,0-1800,805.88745-1800,1800s805.88745,1800,1800,1800,1800-805.88745,1800-1800S3993.11255-300,2999-300ZM2999,2900c-773.19873,0-1400-626.80127-1400-1400S2225.80127,100,2999,100s1400,626.80133,1400,1400-626.80127,1400-1400,1400Z"/>
  <path class="cls-1" d="M-1000.95035-298.34515c-994.11255,0-1800,805.88745-1800,1800s805.88745,1800,1800,1800,1800-805.88745,1800-1800S-6.8378-298.34515-1000.95035-298.34515ZM-1000.95035,2901.65485c-773.19873,0-1400-626.80127-1400-1400S-1774.14908,101.65485-1000.95035,101.65485,399.04965,728.45619,399.04965,1501.65485-227.75162,2901.65485-1000.95035,2901.65485Z"/>
</svg>